<?xml version="1.0" encoding="UTF-8" standalone="no"?>
<!-- Created with Inkscape (http://www.inkscape.org/) -->

<svg
   width="84.832649mm"
   height="37.651241mm"
   viewBox="0 0 84.832649 37.651241"
   version="1.1"
   id="svg1"
   inkscape:version="1.4 (86a8ad7, 2024-10-11)"
   sodipodi:docname="logo ALTERM black simple inkscape.svg"
   inkscape:export-filename="logo ALTERM transparent.png"
   inkscape:export-xdpi="898.23914"
   inkscape:export-ydpi="898.23914"
   xmlns:inkscape="http://www.inkscape.org/namespaces/inkscape"
   xmlns:sodipodi="http://sodipodi.sourceforge.net/DTD/sodipodi-0.dtd"
   xmlns="http://www.w3.org/2000/svg"
   xmlns:svg="http://www.w3.org/2000/svg">
  <sodipodi:namedview
     id="namedview1"
     pagecolor="#ffffff"
     bordercolor="#000000"
     borderopacity="0.25"
     inkscape:showpageshadow="2"
     inkscape:pageopacity="0.0"
     inkscape:pagecheckerboard="0"
     inkscape:deskcolor="#d1d1d1"
     inkscape:document-units="mm"
     inkscape:zoom="0.903317"
     inkscape:cx="183.76716"
     inkscape:cy="166.60818"
     inkscape:window-width="1680"
     inkscape:window-height="987"
     inkscape:window-x="-8"
     inkscape:window-y="-8"
     inkscape:window-maximized="1"
     inkscape:current-layer="layer1"
     showguides="true">
    <sodipodi:guide
       position="-26.586523,196.07391"
       orientation="1,0"
       id="guide3"
       inkscape:locked="false" />
  </sodipodi:namedview>
  <defs
     id="defs1" />
  <g
     inkscape:label="Calque 1"
     inkscape:groupmode="layer"
     id="layer1"
     transform="translate(-62.285199,-96.851096)">
    <g
       id="text1"
       style="font-stretch:condensed;font-size:19.7556px;line-height:0;font-family:Impact;-inkscape-font-specification:'Impact Condensed';text-align:center;letter-spacing:0px;text-anchor:middle;fill:#8c8c8c;stroke-width:0.5;stroke-miterlimit:65.7"
       aria-label="ALTERM"
       transform="translate(40.281613,24.825166)">
      <rect
         style="fill:#b60f20;fill-opacity:1;stroke-width:1.269;stroke-linecap:round;stroke-miterlimit:67;paint-order:stroke fill markers"
         id="rect3-5"
         width="4.3181396"
         height="36.172371"
         x="-102.46955"
         y="-48.948338"
         transform="rotate(-135.05)" />
      <rect
         style="fill:#b60f20;fill-opacity:1;stroke-width:1.269;stroke-linecap:round;stroke-miterlimit:67;paint-order:stroke fill markers"
         id="rect3-1"
         width="4.3179998"
         height="28.172001"
         x="-107.55891"
         y="-45.76405"
         transform="rotate(-135.05)" />
      <rect
         style="font-stretch:condensed;font-size:19.7556px;line-height:0;font-family:Impact;-inkscape-font-specification:'Impact Condensed';text-align:center;letter-spacing:0px;text-anchor:middle;fill:#b60f20;fill-opacity:1;stroke-width:1.269;stroke-linecap:round;stroke-miterlimit:67;paint-order:stroke fill markers"
         id="rect3"
         width="4.3181396"
         height="36.172371"
         x="-97.414169"
         y="-45.009956"
         transform="rotate(-135.05)" />
      <path
         style="font-stretch:normal;font-family:XXIX;-inkscape-font-specification:XXIX;opacity:1;fill:#ffffff;fill-opacity:1;stroke:#ffffff;stroke-linecap:butt;stroke-linejoin:miter;stroke-miterlimit:67;stroke-opacity:1"
         d="m 34.501013,109.42717 v -6.43407 l -6.434075,6.43407 H 22.607139 L 36.111943,95.922365 h 2.247586 v 13.504805 z m 4.823145,-13.504805 h 3.858515 v 9.646285 h 7.717031 v 3.85852 H 39.324158 Z m 17.315089,3.858516 v 9.646289 h -3.858515 v -9.646289 h -3.858516 v -3.858516 h 11.575547 v 3.858516 z m 8.681657,5.787769 h 7.717032 v 3.85852 H 61.462389 V 95.922365 h 11.575547 v 3.858516 h -7.717032 v 0.964629 h 6.752403 v 3.85852 h -6.752403 z m 12.540177,-4.82314 h 4.34083 c 0.135048,0 0.247588,-0.045 0.33762,-0.13505 0.09646,-0.0965 0.144694,-0.21221 0.144694,-0.34726 0,-0.13505 -0.04823,-0.2476 -0.144694,-0.337625 -0.09003,-0.09646 -0.202572,-0.144694 -0.33762,-0.144694 h -4.34083 z m 0,3.85852 v 4.82314 H 74.002565 V 95.922365 h 8.199346 c 1.19614,0 2.218647,0.424437 3.06752,1.27331 0.848873,0.848873 1.27331,1.871382 1.27331,3.067525 0,1.19613 -0.424437,2.21864 -1.27331,3.06752 -0.565916,0.56591 -1.212217,0.94212 -1.938904,1.12861 l 4.546343,4.54634 -0.04152,0.4215 h -4.977486 l -4.823145,-4.82314 z"
         id="path17"
         sodipodi:nodetypes="ccccccccccccccccccccccccccccccccccccccssscsccccccsssscccccc" />
      <path
         style="font-stretch:normal;font-family:Futura;-inkscape-font-specification:Futura;fill:none;stroke:#ffffff"
         d="m 87.882728,109.42717 h 3.852342 l 1.244603,-8.57393 h 0.03951 l 3.417719,8.57393 h 1.540937 l 3.575761,-8.57393 h 0.0395 l 1.08656,8.57393 h 3.8721 l -1.7487,-13.500232 -4.32161,-0.0037 -3.234578,6.569712 -2.672164,-6.571243 -4.326234,0.0039 z"
         id="path18"
         sodipodi:nodetypes="cccccccccccccccc" />
    </g>
  </g>
</svg>
